<svg xmlns="http://www.w3.org/2000/svg" version="1.1" viewBox="0 0 500 500" width="300" height="86.45320197044335"><g stroke-width="2" fill="none" stroke-linecap="butt"><path stroke="#7f4b29" vector-effect="non-scaling-stroke" d="M223.1 195.47 223.57 195.92M224.34 197.55Q224.07 198.37 224.15 199M217.62 197.31 217.11 196.92M215.2 195.45Q214.68 195 214 194.8M213.21 194.42Q212.67 194.03 211.99 193.98M210.08 193.33Q209.57 193.12 209.06 193.08M183.75 199.13Q183.94 198.27 183.52 197.94M210.02 197.58 210.7 197.77M212.35 203.61Q211.81 202.87 210.8 202.69M210.32 202.42Q209.65 201.8 208.81 201.85M207.28 201.4Q206.61 201.06 205.99 201.22M196.77 202.75Q196.22 202.91 195.83 203.28M195.25 203.71Q193.59 204.47 192.52 205.96M201.96 204.71Q201.41 204.92 200.79 204.94M206.97 205.01Q207.3 205.2 207.7 205.24M212.83 211.01Q211.89 211.27 211.76 212.03M205.55 209.13Q204.2 208.73 203.72 209.26M203.47 209.29Q202.54 208.73 201.79 209.44M200.29 209.99Q198.54 210.44 197.55 211.99M196.08 211.71 194.66 209.5M198.32 206.03 199.27 205.61" data-c-stroke="7f4b29"/><path stroke="#804927" vector-effect="non-scaling-stroke" d="M98.03 223.93 98.05 225.24M98.01 226.75 97.93 228.03M86.91 258.98 86.92 258.04M87.1 232.96 87.09 232.28M87.04 230.97 87.01 230.04M86.84 220.98Q86.93 220.48 86.84 219.97M53.22 221.24 51.78 220.93M63.78 221.09 64.96 221.23M66.75 221.56 67.47 221.72M72.92 222.52 75.79 223.92M80.13 230.69Q79.86 231.77 80.29 232.13M80.23 233.79Q79.95 234.33 80.04 235.03M78.42 238.79Q77.9 239.24 77.84 239.74M81.05 252.79 81.17 254.03M121.24 229.85Q120.32 230.07 120 229.74M128.77 232.11Q129.16 231.63 129.37 231.04M140.03 230.03 140.35 231.46M140.34 232.79Q139.87 233.28 140.31 233.99M139.97 243.04Q139.85 243.46 139.88 243.96M103.96 245.19Q103.85 244.69 103.99 244.03M108.19 233.94Q108.78 233.76 109.03 233.3M111.73 231.52 113.3 230.84M132.22 229.85Q131.49 230.13 130.76 230.03M158.08 265.25Q157.6 264.99 156.94 265.03M69.4 248.15 68.3 247.6M67.06 247.44Q66.61 246.84 65.95 247.28M117.25 240.79A2.51 1.4-38.3 0 0 116.98 241.02M116.23 241.78A7.94 5.86-74.7 0 0 115.59 242.63M116.89 254.23A7.52 5.97 74.6 0 0 117.64 254.85M125.25 240.15A8.14 7.45-39.1 0 0 124.29 239.68M122.45 239.22A4.82 1.99 4.1 0 0 121.77 239.18M161.94 239.51A7.73 6.6-82.3 0 0 161 239.87M170.93 244.86A6.83 4.42 73.6 0 0 170.59 243.96" data-c-stroke="804927"/></g><path fill="#1682bf" d="M 356.60 164.11 Q 356.90 164.11 357.22 164.11 Q 370.46 164.29 380.45 171.54 Q 383.71 173.91 386.64 176.07 A 0.27 0.26 38.3 0 1 386.69 176.45 L 383.12 180.95 A 0.31 0.31 0.0 0 1 382.69 181.00 Q 376.52 175.87 374.84 174.93 Q 366.07 170.02 356.61 170.04 Q 347.15 170.07 338.40 175.01 Q 336.72 175.96 330.58 181.12 A 0.31 0.31 0.0 0 1 330.15 181.07 L 326.56 176.58 A 0.27 0.26 -38.6 0 1 326.61 176.20 Q 329.53 174.03 332.78 171.65 Q 342.73 164.35 355.97 164.11 Q 356.29 164.11 356.60 164.11 Z" data-c-fill="1682bf"/><path fill="#1682bf" d="M 356.68 175.91 Q 368.23 175.85 378.02 184.55 A 0.61 0.60 39.9 0 1 378.10 185.37 L 374.84 189.48 A 0.60 0.60 0.0 0 1 373.96 189.55 Q 365.97 182.13 356.71 182.17 Q 347.46 182.22 339.54 189.72 A 0.60 0.60 0.0 0 1 338.66 189.66 L 335.36 185.58 A 0.61 0.60 -40.5 0 1 335.43 184.77 Q 345.13 175.97 356.68 175.91 Z" data-c-fill="1682bf"/><path fill="#fe9551" d="M 223.10 195.47 L 223.57 195.92 L 224.34 197.55 Q 224.07 198.37 224.15 199.00 C 222.38 201.83 219.37 199.03 217.62 197.31 L 217.11 196.92 Q 216.29 196.03 215.20 195.45 Q 214.68 195.00 214.00 194.80 L 213.21 194.42 Q 212.67 194.03 211.99 193.98 L 210.08 193.33 Q 209.57 193.12 209.06 193.08 Q 197.05 190.57 188.31 199.07 Q 185.72 201.60 183.75 199.13 Q 183.94 198.27 183.52 197.94 C 184.09 194.70 191.82 190.48 194.58 189.49 Q 204.68 185.85 214.91 190.07 Q 217.93 191.32 223.10 195.47 Z" data-c-fill="fe9551"/><path fill="#1682bf" d="M 354.15 195.04 Q 350.83 196.01 348.98 197.53 A 1.27 1.26 -45.6 0 1 347.39 197.55 L 344.27 195.08 A 1.17 1.17 0.0 0 1 344.25 193.27 Q 356.69 182.84 369.47 193.39 A 0.87 0.86 39.0 0 1 369.60 194.59 L 367.17 197.65 A 1.76 1.76 0.0 0 1 364.75 197.98 C 362.92 196.63 361.35 195.21 359.69 195.13 A 0.70 0.70 0.0 0 0 358.98 196.01 L 377.85 266.06 A 0.74 0.74 0.0 0 1 377.14 266.99 L 336.60 266.99 A 1.10 1.10 0.0 0 1 335.54 265.60 L 354.62 195.49 A 0.37 0.37 0.0 0 0 354.15 195.04 Z" data-c-fill="1682bf"/><path fill="#000000" d="M210.08 193.33Q209.08 193.73 209.06 193.08 209.57 193.12 210.08 193.33ZM213.21 194.42Q212.84 194.61 212.51 194.54 212.05 194.46 211.99 193.98 212.67 194.03 213.21 194.42ZM215.2 195.45Q214.29 195.67 214 194.8 214.68 195 215.2 195.45ZM223.57 195.92 223.1 195.47Q223.73 195.31 223.57 195.92Z" data-c-fill="000000"/><path fill="#fe9551" d="M 210.02 197.58 L 210.70 197.77 L 218.12 202.77 A 1.55 1.55 0.0 0 1 218.47 205.01 L 218.13 205.43 A 1.92 1.91 -53.4 0 1 215.54 205.82 L 212.35 203.61 Q 211.81 202.87 210.80 202.69 L 210.32 202.42 Q 209.65 201.80 208.81 201.85 L 207.28 201.40 Q 206.61 201.06 205.99 201.22 Q 201.03 200.51 196.77 202.75 Q 196.22 202.91 195.83 203.28 Q 195.51 203.67 195.25 203.71 Q 193.59 204.47 192.52 205.96 Q 190.44 206.45 189.34 204.85 A 1.43 1.42 -39.0 0 1 189.54 203.01 Q 198.52 194.50 210.02 197.58 Z" data-c-fill="fe9551"/><path fill="#000000" d="M217.62 197.31Q217.18 197.4 217.11 196.92L217.62 197.31ZM210.7 197.77 210.02 197.58Q210.47 197.52 210.7 197.77ZM224.15 199Q224.07 198.37 224.34 197.55 224.81 198.82 224.15 199ZM183.75 199.13Q183.15 198.55 183.52 197.94 183.94 198.27 183.75 199.13ZM207.28 201.4Q206.27 201.81 205.99 201.22 206.61 201.06 207.28 201.4ZM210.32 202.42Q210.01 202.86 209.5 202.71 208.93 202.54 208.81 201.85 209.65 201.8 210.32 202.42ZM196.77 202.75Q196.74 203.16 196.37 203.35 195.97 203.56 195.83 203.28 196.22 202.91 196.77 202.75ZM212.35 203.61Q211.2 203.75 210.8 202.69 211.81 202.87 212.35 203.61ZM195.25 203.71Q194.2 205.7 192.52 205.96 193.59 204.47 195.25 203.71ZM201.96 204.71Q201.41 204.92 200.79 204.94 201.44 204.48 201.96 204.71Z" data-c-fill="000000"/><path fill="#fe9551" d="M 201.96 204.71 L 206.97 205.01 Q 207.30 205.20 207.70 205.24 C 210.12 206.41 214.34 208.14 212.83 211.01 Q 211.89 211.27 211.76 212.03 Q 211.06 212.20 210.55 211.74 Q 208.22 209.66 205.55 209.13 Q 204.20 208.73 203.72 209.26 Q 203.60 209.28 203.47 209.29 Q 202.54 208.73 201.79 209.44 L 200.29 209.99 Q 198.54 210.44 197.55 211.99 Q 196.46 212.11 196.08 211.71 L 194.66 209.50 Q 195.78 207.36 198.32 206.03 L 199.27 205.61 L 200.79 204.94 Q 201.41 204.92 201.96 204.71 Z" data-c-fill="fe9551"/><path fill="#000000" d="M207.7 205.24Q207.3 205.2 206.97 205.01 207.46 204.98 207.7 205.24ZM199.27 205.61 198.32 206.03Q198.34 205.52 199.27 205.61ZM203.47 209.29Q202.53 209.85 201.79 209.44 202.54 208.73 203.47 209.29ZM205.55 209.13Q204.54 209.85 203.72 209.26 204.2 208.73 205.55 209.13ZM194.66 209.5 196.08 211.71C194.76 211.9 194.03 210.74 194.66 209.5ZM200.29 209.99Q199.27 211.57 197.55 211.99 198.54 210.44 200.29 209.99ZM212.83 211.01Q212.76 212.08 211.76 212.03 211.89 211.27 212.83 211.01Z" data-c-fill="000000"/><ellipse fill="#fe9551" cx="0" cy="0" transform="rotate(-9.1 1461.078 -1172.818)" rx="2.73" ry="2.47" data-c-fill="fe9551"/><path fill="#ff924d" d="M 98.03 223.93 L 98.05 225.24 L 98.01 226.75 L 97.93 228.03 L 98.11 263.95 A 1.05 1.05 0.0 0 1 97.06 265.01 L 87.70 265.01 A 0.86 0.86 0.0 0 1 86.84 264.14 L 86.91 258.98 L 86.92 258.04 L 87.10 232.96 L 87.09 232.28 L 87.04 230.97 L 87.01 230.04 L 86.84 220.98 Q 86.93 220.48 86.84 219.97 Q 86.92 219.03 88.26 218.99 Q 92.38 218.87 97.18 219.03 A 0.89 0.89 0.0 0 1 98.04 219.92 L 98.03 223.93 Z" data-c-fill="ff924d"/><path fill="#000000" d="M86.84 219.97Q86.93 220.48 86.84 220.98 86.52 220.98 86.51 220.5 86.5 220.09 86.84 219.97ZM53.22 221.24 51.78 220.93Q52.64 220.5 53.22 221.24Z" data-c-fill="000000"/><path fill="#ff924d" d="M 51.78 220.93 L 53.22 221.24 L 59.93 221.49 Q 60.00 221.49 60.07 221.49 L 63.78 221.09 L 64.96 221.23 L 66.75 221.56 L 67.47 221.72 L 72.92 222.52 L 75.79 223.92 Q 78.90 226.83 80.13 230.69 Q 79.86 231.77 80.29 232.13 L 80.23 233.79 Q 79.95 234.33 80.04 235.03 L 78.42 238.79 Q 77.90 239.24 77.84 239.74 L 74.35 242.46 A 0.41 0.41 0.0 0 0 74.39 243.14 L 78.00 245.23 A 1.05 0.88 79.8 0 1 78.30 245.48 Q 80.86 248.53 81.05 252.79 L 81.17 254.03 C 80.33 262.15 73.91 264.91 66.25 264.95 Q 50.21 265.02 46.41 264.99 A 0.40 0.40 0.0 0 1 46.02 264.59 L 46.02 223.21 A 1.90 1.89 80.5 0 1 47.29 221.42 Q 49.14 220.77 51.78 220.93 Z M 56.97 231.05 L 56.99 237.95 A 1.09 1.09 0.0 0 0 58.09 239.04 L 64.74 239.01 A 4.32 4.16 -0.2 0 0 69.04 234.84 L 69.04 234.08 A 4.32 4.16 -0.2 0 0 64.70 229.93 L 58.05 229.96 A 1.09 1.09 0.0 0 0 56.97 231.05 Z M 69.40 248.15 L 68.30 247.60 Q 67.66 247.39 67.06 247.44 Q 66.61 246.84 65.95 247.28 L 58.70 246.92 A 1.65 1.65 0.0 0 0 56.97 248.57 L 56.97 254.50 A 1.60 1.60 0.0 0 0 58.67 256.10 C 61.87 255.88 65.67 256.44 68.72 255.28 A 1.66 1.65 -2.9 0 0 69.74 254.16 Q 70.56 251.05 69.40 248.15 Z" data-c-fill="ff924d"/><path fill="#000000" d="M64.96 221.23 63.78 221.09Q64.43 220.86 64.96 221.23ZM192.24 223.52A.56.55-81.5 0 0 192.63 224.05Q193.21 224.23 193.51 223.88 193.71 223.66 193.61 223.41 193.46 223.02 193.43 222.98A1.12 1.12 0 0 1 194.25 221.22Q202.66 220.55 208.76 221.47A3.75 3.72-45.3 0 0 209.88 221.46Q214.83 220.61 220.36 221.1A.65.64-87.6 0 1 220.95 221.75L220.95 229.2A.78.77-90 0 1 220.18 229.98L210.65 229.98A.65.65 0 0 0 210 230.63L210 263.94A1.12 1.12 0 0 1 208.88 265.06L200.02 265.06A1.02 1.02 0 0 1 199 264.04L199 231.01A1.02 1.02 0 0 0 197.98 229.99L187.86 229.99A.69.69 0 0 1 187.17 229.3L187.17 222.67A1.27 1.27 0 0 1 187.63 221.69Q189 220.57 191.61 221.23A.84.84 0 0 1 192.24 222.04L192.24 223.52ZM208.53 223.75Q208.68 223.6 208.65 223.45A.13.13 0 0 0 208.55 223.34Q208.4 223.29 208.33 223.64A.12.12 0 0 0 208.53 223.75ZM67.47 221.72 66.75 221.56Q67.27 221.41 67.47 221.72ZM75.79 223.92 72.92 222.52Q74.63 222.35 75.79 223.92ZM98.03 223.93Q98.98 224.57 98.05 225.24L98.03 223.93ZM97.93 228.03 98.01 226.75Q99.01 227.52 97.93 228.03ZM121.24 229.85Q120.32 230.07 120 229.74 120.48 229.34 121.24 229.85ZM132.22 229.85Q131.49 230.13 130.76 230.03 131.32 229.11 132.22 229.85Z" data-c-fill="000000"/><path fill="#ff924d" d="M 120.00 229.74 Q 120.32 230.07 121.24 229.85 Q 125.03 231.10 128.26 233.57 A 0.39 0.39 0.0 0 0 128.88 233.35 Q 128.99 232.86 128.77 232.11 Q 129.16 231.63 129.37 231.04 Q 129.86 230.32 130.76 230.03 Q 131.49 230.13 132.22 229.85 L 140.03 230.03 L 140.35 231.46 L 140.34 232.79 Q 139.87 233.28 140.31 233.99 L 139.97 243.04 Q 139.85 243.46 139.88 243.96 L 140.11 263.85 A 1.11 1.11 0.0 0 1 139.00 264.97 L 129.86 264.97 A 0.87 0.86 -0.0 0 1 128.99 264.11 L 128.99 261.36 A 0.27 0.27 0.0 0 0 128.55 261.15 L 125.19 264.03 A 2.32 2.18 -71.8 0 1 124.44 264.44 Q 112.10 268.15 105.99 258.22 Q 102.70 252.87 103.96 245.19 Q 103.85 244.69 103.99 244.03 Q 104.28 238.16 108.19 233.94 Q 108.78 233.76 109.03 233.30 L 111.73 231.52 L 113.30 230.84 L 120.00 229.74 Z M 117.25 240.79 A 2.51 1.40 -38.3 0 0 116.98 241.02 A 7.88 7.14 87.2 0 0 116.23 241.78 A 7.94 5.86 -74.7 0 0 115.59 242.63 A 8.52 7.64 88.0 0 0 116.89 254.23 A 7.52 5.97 74.6 0 0 117.64 254.85 A 8.53 7.65 87.4 0 0 126.61 254.35 A 8.47 7.54 87.8 0 0 128.52 251.77 A 8.48 7.62 87.8 0 0 129.07 245.23 A 8.52 7.62 88.0 0 0 125.25 240.15 A 8.14 7.45 -39.1 0 0 124.29 239.68 A 8.85 8.05 -76.0 0 0 122.45 239.22 A 4.82 1.99 4.1 0 0 121.77 239.18 A 8.55 7.66 88.4 0 0 117.25 240.79 Z" data-c-fill="ff924d"/><path fill="#000000" d="M286.7947 248.763A16.03 16.03 0 0 1 271.1898 265.2071L267.6111 265.3008A16.03 16.03 0 0 1 251.1669 249.6959L251.0853 246.577A16.03 16.03 0 0 1 266.6902 230.1329L270.2689 230.0392A16.03 16.03 0 0 1 286.7131 245.6441L286.7947 248.763ZM268.2958 256.248A8.59 7.2 94.1 0 0 276.0916 248.1948 8.59 7.2 94.1 0 0 269.5242 239.112 8.59 7.2 94.1 0 0 261.7284 247.1652 8.59 7.2 94.1 0 0 268.2958 256.248ZM395.87 247.64C395.87 251.01 396.69 254.97 400.32 255.94Q405 257.18 407.41 253A1.18 1.14 9.6 0 1 408.23 252.44Q413.35 251.64 418.19 252.36A.74.73 13 0 1 418.79 253.31Q414.92 265.55 401.82 265.39C391.49 265.25 384.84 257.57 384.83 247.65 384.82 237.73 391.46 230.03 401.78 229.88Q414.88 229.69 418.78 241.92A.74.73-13.2 0 1 418.18 242.87Q413.34 243.6 408.22 242.81A1.18 1.14-9.8 0 1 407.4 242.25Q404.98 238.08 400.3 239.33C396.67 240.3 395.87 244.27 395.87 247.64ZM452.15 240.81A1.04 1.04 0 0 1 451.12 242.01L444.26 242.01A1.57 1.55 71.5 0 1 443.01 241.38L441.12 238.8A1.06 1 79.4 0 0 440.61 238.43Q437.71 237.47 435.04 238.37A1.44 1.41-86 0 0 434.23 239.09C433.14 241.3 434.85 242.64 436.96 243.2 439.64 243.91 443.67 244.77 447.36 246.65 455.11 250.59 454.46 260.07 446.78 263.69 438.63 267.53 426.81 265.48 423.11 256.17A1.66 1.66 0 0 1 424.61 253.9Q429.13 253.77 431.91 254.26 432.93 254.44 434.95 256.24 438.72 259.61 442.41 256.02A1.6 1.6 0 0 0 441.99 253.44Q437.63 251.34 431.42 249.91C423.56 248.11 421.24 238.41 427.23 233.16 431.48 229.45 438.14 229.2 443.2 230.53Q450.87 232.54 452.15 240.81ZM87.01 230.04 87.04 230.97C86.61 230.82 86.56 230.18 87.01 230.04ZM140.35 231.46 140.03 230.03Q140.48 229.97 140.54 230.26 140.65 230.84 140.35 231.46Z" data-c-fill="000000"/><path fill="#ff924d" d="M 158.08 265.25 Q 157.60 264.99 156.94 265.03 Q 148.49 262.00 146.31 252.72 Q 143.91 242.54 149.49 235.80 C 154.91 229.26 162.86 228.47 170.04 232.52 A 0.58 0.58 0.0 0 0 170.82 232.30 L 171.66 230.86 A 1.70 1.70 0.0 0 1 173.13 230.01 L 180.21 230.01 A 1.78 1.77 90.0 0 1 181.98 231.79 L 181.98 280.68 A 1.40 1.40 0.0 0 1 180.48 282.08 L 171.74 281.46 A 0.72 0.72 0.0 0 1 171.07 280.74 L 171.07 262.63 A 0.47 0.47 0.0 0 0 170.34 262.24 Q 164.84 266.04 158.08 265.25 Z M 161.94 239.51 A 7.73 6.60 -82.3 0 0 161.00 239.87 A 8.52 7.52 -89.9 0 0 156.34 247.74 A 8.54 7.52 -90.0 0 0 160.76 255.52 A 8.52 7.51 89.9 0 0 169.10 253.86 A 8.55 7.52 89.8 0 0 170.93 244.86 A 6.83 4.42 73.6 0 0 170.59 243.96 A 8.53 7.53 -89.9 0 0 164.46 239.25 A 8.34 7.35 -90.0 0 0 161.94 239.51 Z" data-c-fill="ff924d"/><path fill="#000000" d="M236.98 234.45A.45.45 0 0 0 237.77 234.75Q241.7 230.31 246.93 229.94A1 .99-2.1 0 1 248 230.93L248 240.07A.89.89 0 0 1 247.03 240.96Q242.87 240.62 239.8 242.77C237.34 244.5 236.85 245.77 236.91 248.74Q237.07 255.74 236.9 264.34A.69.69 0 0 1 236.21 265.01L226.64 265.01A.63.62 0 0 1 226.01 264.39L226.01 231.26A1.3 1.29-2.4 0 1 227.2 229.97Q229.96 229.74 230.51 231.75A.46.46 0 0 0 231.38 231.81Q232.51 229.23 236.39 230.22A.78.78 0 0 1 236.98 230.98L236.98 234.45ZM302.99 233.14A.7.7 0 0 0 304.17 233.66Q307.68 230.42 312.61 229.99C320.87 229.26 326.75 235.12 327.02 243.3Q327.27 250.58 326.81 264.37A.73.73 0 0 1 326.08 265.08L316.91 265.08A.91.91 0 0 1 316 264.17Q316.02 251.5 316.02 245.25C316.03 241.54 313.92 239.1 310.28 238.93 304.44 238.66 303.1 243.44 303.02 248.41Q302.91 254.96 302.96 264.22A.78.78 0 0 1 302.18 265.01L294.01 265.01A.97.97 0 0 1 293.04 264.04L293.04 231.08A1.04 1.04 0 0 1 294.08 230.04L301.93 230.04A1.06 1.06 0 0 1 302.99 231.1L302.99 233.14ZM113.3 230.84 111.73 231.52Q111.37 230.98 111.44 230.67 111.54 230.27 112.2 230.37 112.77 230.46 113.3 230.84ZM80.29 232.13Q79.86 231.77 80.13 230.69 80.66 231.68 80.29 232.13ZM129.37 231.04Q129.16 231.63 128.77 232.11 128.36 231.93 128.56 231.53 128.82 231.03 129.37 231.04ZM87.09 232.28 87.1 232.96Q86.63 232.68 87.09 232.28ZM140.31 233.99Q139.87 233.28 140.34 232.79 140.52 233.42 140.31 233.99ZM109.03 233.3Q108.78 233.76 108.19 233.94 108.48 233.28 109.03 233.3ZM80.23 233.79Q80.67 234.5 80.04 235.03 79.95 234.33 80.23 233.79ZM78.42 238.79Q78.48 239.03 78.47 239.26 78.46 239.52 78.28 239.65 78.09 239.78 77.84 239.74 77.9 239.24 78.42 238.79ZM122.45 239.22 121.77 239.18A4.82 1.99 4.1 0 1 122.45 239.22ZM161.94 239.51Q161.52 240.04 161 239.87A7.73 6.6-82.3 0 1 161.94 239.51ZM125.25 240.15Q124.8 240.42 124.53 240.21 124.32 240.05 124.29 239.68A8.14 7.45-39.1 0 1 125.25 240.15ZM117.25 240.79Q117.56 240.98 117.53 241.28 117.5 241.65 117.14 241.56 117.03 241.54 116.98 241.02A2.51 1.4-38.3 0 1 117.25 240.79ZM116.23 241.78Q116.43 241.89 116.52 242.06 116.62 242.25 116.44 242.4 116.14 242.66 115.59 242.63A7.94 5.86-74.7 0 1 116.23 241.78ZM139.97 243.04Q140.27 243.21 140.27 243.5 140.27 243.89 139.88 243.96 139.85 243.46 139.97 243.04ZM103.99 244.03Q103.85 244.69 103.96 245.19 103.31 244.62 103.99 244.03ZM170.93 244.86Q170.41 244.53 170.59 243.96A6.83 4.42 73.6 0 1 170.93 244.86ZM67.06 247.44Q66.28 247.89 65.95 247.28 66.61 246.84 67.06 247.44ZM69.4 248.15Q68.72 248.77 68.51 248.49 68.26 248.16 68.3 247.6L69.4 248.15ZM115.17 250.07Q115.04 249.82 115.07 249.69A.13.13 0 0 1 115.3 249.66Q115.46 249.94 115.38 250.07A.12.12 0 0 1 115.17 250.07ZM81.17 254.03 81.05 252.79Q81.6 253.42 81.17 254.03ZM117.64 254.85A7.52 5.97 74.6 0 1 116.89 254.23Q117.49 254.35 117.64 254.85ZM86.92 258.04 86.91 258.98Q86.74 258.58 86.92 258.04ZM158.08 265.25Q158.04 265.52 157.5 265.52 157.11 265.52 156.94 265.03 157.6 264.99 158.08 265.25Z" data-c-fill="000000"/></svg>